<svg xmlns="http://www.w3.org/2000/svg"
  width="396"
  height="136.18536585365854"
  viewBox="0 0 410 141"
  class="css-1j8o68f"
>
  <defs id="SvgjsDefs1624"></defs>
  <g
    id="SvgjsG1625"
    featurekey="rootContainer"
    transform="matrix(1,0,0,1,0,0)"
    fill="#fff"
  >
    <rect width="410" height="141"></rect>
  </g>
  <g
    id="SvgjsG1626"
    featurekey="symbolFeature-0"
    transform="matrix(1.19691801071167,0,0,1.19691801071167,5.5065200592610495,13.874093644178565)"
    fill="#118df0"
  >
    <g>
      <path
        d="M85.52,37.726c0,0-1.144-7.768-7.479-10.727c0,0,1.436-2.899-5.839-2.899c0,0-6.103-0.493-6.103,3.145   c0,0-2.16,1.171-2.346,1.542c0,0-4.588-3.793-10.031-4.568c-0.217-3.767-1.688-4.248-1.688-4.248   c-5.169-12.357-20.29-3.293-20.29-3.293L12.109,28.677v2.776C24.53,23.05,34.828,17.54,34.828,17.54   c12.826-5.672,14.949,3.293,14.949,3.293c-0.829,1.107-0.002,3.469,0,3.477c-5.188,0.945-9.461,4.476-9.461,4.476   c-0.185-0.37-2.343-1.542-2.343-1.542c0-3.638-6.104-3.145-6.104-3.145c-7.275,0-5.841,2.899-5.841,2.899   c-6.332,2.959-7.476,10.727-7.476,10.727C8.811,82.238,22.25,81.497,22.25,81.497c10.146,2.343,14.8-19.112,14.8-19.112   c4.469,0.324,7.459-2.729,7.459-2.729c3.29,4.047,6.476,4.371,7.527,4.354c1.052,0.017,4.237-0.308,7.526-4.354   c0,0,2.989,3.053,7.461,2.729c0,0,4.652,21.455,14.795,19.112C81.818,81.498,95.26,82.239,85.52,37.726z M23.302,35.105   c0-3.986,3.535-7.218,7.898-7.218c4.361,0,7.9,3.231,7.9,7.218s-3.539,7.219-7.9,7.219C26.837,42.324,23.302,39.093,23.302,35.105z    M39.47,50.111c-2.414,0-4.371-1.958-4.371-4.372c0-2.415,1.957-4.371,4.371-4.371c2.413,0,4.372,1.956,4.372,4.371   C43.842,48.153,41.883,50.111,39.47,50.111z M47.353,43.428c-1.341,0-2.429-0.599-2.429-1.341c0-0.74,1.088-1.341,2.429-1.341   c1.34,0,2.425,0.602,2.425,1.341C49.777,42.829,48.692,43.428,47.353,43.428z M46.867,37.855c0-1.339,2.463-2.427,5.502-2.427   c3.038,0,5.503,1.088,5.503,2.427c0,1.342-2.465,2.429-5.503,2.429C49.33,40.284,46.867,39.197,46.867,37.855z M57.133,43.634   c-1.341,0-2.427-0.602-2.427-1.342s1.086-1.342,2.427-1.342c1.342,0,2.428,0.602,2.428,1.342S58.475,43.634,57.133,43.634z    M65.01,50.111c-2.414,0-4.371-1.958-4.371-4.372c0-2.415,1.957-4.371,4.371-4.371c2.415,0,4.371,1.956,4.371,4.371   C69.381,48.153,67.425,50.111,65.01,50.111z M72.943,42.324c-4.361,0-7.899-3.231-7.899-7.219c0-3.986,3.538-7.218,7.899-7.218   c4.363,0,7.9,3.231,7.9,7.218C80.846,39.093,77.309,42.324,72.943,42.324z"
      ></path>
      <circle cx="68.574" cy="35.106" r="2.407"></circle>
      <circle cx="77.314" cy="35.105" r="2.408"></circle>
      <circle cx="72.943" cy="38.727" r="2.407"></circle>
      <circle cx="72.943" cy="31.531" r="2.407"></circle>
      <circle cx="31.2" cy="35.105" r="1.564"></circle>
    </g>
  </g>
  <g
    id="SvgjsG1627"
    featurekey="nameFeature-0"
    transform="matrix(1.3079153299331665,0,0,1.3079153299331665,125.04189079896801,-0.32876811505248504)"
    fill="#118df0"
  >
    <path
      d="M17.64 12 l-0.96 2.08 c-0.16 0.36 -0.6 0.76 -1.52 0.76 l-2.24 0 c-0.4 0 -0.68 0.32 -0.72 0.68 l0 24.48 l-2.04 0 c-0.68 0 -0.8 -0.4 -0.8 -0.6 l0 -24.56 l-4.04 0 l0 -1.96 c0 -0.48 0.4 -0.88 0.88 -0.88 l11.44 0 z M36.06 11.719999999999999 l2.2 0 c1.92 0.08 3.48 1.64 3.48 3.56 l0 21.48 c-0.04 1.92 -1.56 3.44 -3.48 3.52 l-2.2 0 c-1.96 0 -3.56 -1.6 -3.6 -3.52 l0 -21.48 c0 -1.96 1.6 -3.56 3.6 -3.56 z M36.86 37.76 l0.44 0 c0.84 0 1.52 -0.68 1.52 -1.56 l0 -20.4 c0 -0.88 -0.68 -1.56 -1.52 -1.56 l-0.44 0 c-0.84 0.04 -1.52 0.72 -1.52 1.56 l0 20.4 c0 0.84 0.68 1.52 1.52 1.56 z M59.64 12 l5.56 0 c1.96 0 3.52 1.56 3.56 3.52 l0 20.96 c-0.04 1.96 -1.6 3.52 -3.56 3.52 l-5.56 0 l0 -28 z M65.92 35.68 l0 -19.36 c0 -1.04 -0.72 -1.44 -1.52 -1.44 l-1.88 0 l0 22.28 l1.88 0 c0.8 0 1.52 -0.4 1.52 -1.48 z M90.26000000000002 11.719999999999999 l2.2 0 c1.92 0.08 3.48 1.64 3.48 3.56 l0 21.48 c-0.04 1.92 -1.56 3.44 -3.48 3.52 l-2.2 0 c-1.96 0 -3.56 -1.6 -3.6 -3.52 l0 -21.48 c0 -1.96 1.6 -3.56 3.6 -3.56 z M91.06000000000002 37.76 l0.44 0 c0.84 0 1.52 -0.68 1.52 -1.56 l0 -20.4 c0 -0.88 -0.68 -1.56 -1.52 -1.56 l-0.44 0 c-0.84 0.04 -1.52 0.72 -1.52 1.56 l0 20.4 c0 0.84 0.68 1.52 1.52 1.56 z M124.04 12 l-0.96 2.08 c-0.16 0.36 -0.6 0.76 -1.52 0.76 l-2.24 0 c-0.4 0 -0.68 0.32 -0.72 0.68 l0 24.48 l-2.04 0 c-0.68 0 -0.8 -0.4 -0.8 -0.6 l0 -24.56 l-4.04 0 l0 -1.96 c0 -0.48 0.4 -0.88 0.88 -0.88 l11.44 0 z M143.14 37.16 l6 0 c-0.32 0.72 -0.8 1.84 -0.92 2.08 c-0.2 0.36 -0.64 0.76 -1.56 0.76 l-6.4 0 l0 -27.2 c0.04 -0.44 0.4 -0.8 0.88 -0.8 l7.48 0 l-0.96 2.08 c-0.16 0.36 -0.6 0.8 -1.52 0.8 l-2.32 0 c-0.4 0 -0.68 0.28 -0.68 0.68 l0 8.32 l4.32 0 c-0.32 0.72 -0.8 1.88 -0.92 2.12 c-0.2 0.36 -0.6 0.76 -1.52 0.76 l-1.2 0 c-0.36 0 -0.68 0.32 -0.68 0.68 l0 9.72 z M175.07999999999998 29.96 l0 6.76 c0 1.92 -1.52 3.48 -3.44 3.56 l-1.76 0 c-2 0 -3.6 -1.6 -3.6 -3.56 l0 -21.44 c0 -1.96 1.6 -3.56 3.6 -3.56 l1.76 0 c1.92 0.04 3.44 1.64 3.44 3.56 l0 4.28 c0 0.92 -0.4 1.36 -0.76 1.52 l-2.08 0.96 l0 -6.28 c0 -0.84 -0.68 -1.52 -1.56 -1.52 c-0.84 0 -1.52 0.68 -1.52 1.52 l0 20.44 c0 0.88 0.68 1.56 1.52 1.56 c0.88 0 1.56 -0.68 1.56 -1.56 l0 -3.76 c0 -0.92 0.4 -1.36 0.76 -1.56 c0.24 -0.12 1.36 -0.6 2.08 -0.92 z M199.61999999999998 12 l1.72 0 c0.88 0 1.16 0.64 1.16 1.12 l0 26.88 l-2.88 0 l0 -12.2 c-0.04 -0.36 -0.32 -0.64 -0.68 -0.64 l-3.12 0 l0 12.84 l-2.88 0 l0 -26.88 c0 -0.48 0.28 -1.12 1.16 -1.12 l1.72 0 l0 11.32 c0 0.8 0.32 1 1 1 l2.8 0 l0 -12.32 z"
    ></path>
  </g>
  <g
    id="SvgjsG1628"
    featurekey="nameFeature-1"
    transform="matrix(2.214019775390625,0,0,2.214019775390625,115.26769906156578,36.05169684088852)"
    fill="#118df0"
  >
    <path
      d="M15.64 18.08 c-0.24 0.12 -1.36 0.64 -2.12 0.96 l0 -3.24 c0 -0.88 -0.68 -1.56 -1.52 -1.56 s-1.52 0.68 -1.52 1.56 l0 2.68 c0 1.64 1.24 3.76 1.24 3.76 l3.44 6.48 c1.4 2.56 1.28 4.44 1.28 4.44 l0 3.56 c0 1.96 -1.6 3.56 -3.6 3.56 l-1.8 0 c-1.92 -0.08 -3.44 -1.64 -3.48 -3.56 l0 -2.88 c0 -0.92 0.44 -1.36 0.8 -1.56 c0.24 -0.08 1.4 -0.6 2.12 -0.92 l0 4.88 c0 0.84 0.68 1.52 1.52 1.52 s1.52 -0.68 1.52 -1.56 l0 -3.2 c0 -1.64 -1.24 -3.8 -1.24 -3.8 l-3.44 -6.44 c-1.4 -2.56 -1.28 -4.44 -1.28 -4.44 l0 -2.88 c0 -1.96 1.6 -3.72 3.6 -3.72 l1.8 0 c1.92 0.04 3.48 1.8 3.48 3.72 l0 1.08 c0 0.92 -0.44 1.36 -0.8 1.56 z M44.74 12 l-0.96 2.08 c-0.16 0.36 -0.6 0.76 -1.52 0.76 l-2.24 0 c-0.4 0 -0.68 0.32 -0.72 0.68 l0 24.48 l-2.04 0 c-0.68 0 -0.8 -0.4 -0.8 -0.6 l0 -24.56 l-4.04 0 l0 -1.96 c0 -0.48 0.4 -0.88 0.88 -0.88 l11.44 0 z M63.160000000000004 11.719999999999999 l2.2 0 c1.92 0.08 3.48 1.64 3.48 3.56 l0 21.48 c-0.04 1.92 -1.56 3.44 -3.48 3.52 l-2.2 0 c-1.96 0 -3.56 -1.6 -3.6 -3.52 l0 -21.48 c0 -1.96 1.6 -3.56 3.6 -3.56 z M63.96 37.76 l0.44 0 c0.84 0 1.52 -0.68 1.52 -1.56 l0 -20.4 c0 -0.88 -0.68 -1.56 -1.52 -1.56 l-0.44 0 c-0.84 0.04 -1.52 0.72 -1.52 1.56 l0 20.4 c0 0.84 0.68 1.52 1.52 1.56 z M95.62 40 l-2.88 0 l0 -10.24 c0 -1.36 -0.72 -1.8 -1.48 -1.8 l-1.52 0 l0 12.04 l-2.88 0 l0 -28 l5.24 0 c1.92 0 3.52 1.56 3.52 3.52 l0 8.64 s0.12 2.2 -1.04 2.48 c1.12 0.56 1.04 2.64 1.04 2.64 l0 10.72 z M89.74000000000001 25.240000000000002 l1.52 0 c0.76 0 1.48 -0.32 1.48 -1.6 l0 -7.52 c0 -1.04 -0.72 -1.44 -1.48 -1.44 l-1.52 0 l0 10.56 z M118.04 37.16 l6 0 c-0.32 0.72 -0.8 1.84 -0.92 2.08 c-0.2 0.36 -0.64 0.76 -1.56 0.76 l-6.4 0 l0 -27.2 c0.04 -0.44 0.4 -0.8 0.88 -0.8 l7.48 0 l-0.96 2.08 c-0.16 0.36 -0.6 0.8 -1.52 0.8 l-2.32 0 c-0.4 0 -0.68 0.28 -0.68 0.68 l0 8.32 l4.32 0 c-0.32 0.72 -0.8 1.88 -0.92 2.12 c-0.2 0.36 -0.6 0.76 -1.52 0.76 l-1.2 0 c-0.36 0 -0.68 0.32 -0.68 0.68 l0 9.72 z"
    ></path>
  </g>
</svg>